PathFileType	4	(X/Y/Z)	RUN4																																																													
DataRate	CameraRate	NumFrames	NumMarkers	Units	OrigDataRate	OrigDataStartFrame	OrigNumFrames																																																									
72	72	8	21	mm	72	748	854																																																									
Frame#	Time	Hand_Start			Hand_Thumb1			Hand_Thumb2			Hand_Thumb3			Hand_Index1			Hand_Index2			Hand_Index3			Hand_Middle1			Hand_Middle2			Hand_Middle3			Hand_Ring1			Hand_Ring2			Hand_Ring3			Hand_Pinky1			Hand_Pinky2			Hand_Pinky3			Hand_ThumbTip			Hand_IndexTip			Hand_MiddleTip			Hand_RingTip			Hand_PinkyTip		
		X1	Y1	Z1	X2	Y2	Z2	X3	Y3	Z3	X4	Y4	Z4	X5	Y5	Z5	X6	Y6	Z6	X7	Y7	Z7	X8	Y8	Z8	X9	Y9	Z9	X10	Y10	Z10	X11	Y11	Z11	X12	Y12	Z12	X13	Y13	Z13	X14	Y14	Z14	X15	Y15	Z15	X16	Y16	Z16	X17	Y17	Z17	X18	Y18	Z18	X19	Y19	Z19	X20	Y20	Z20	X21	Y21	Z21
																																																																
748	10.375	212.3248	-42.46452	178.5046	247.9486	-59.21611	147.1208	268.7308	-71.7254	124.2194	290.8832	-93.2152	108.4181	299.8752	-91.9297	163.3448	304.8989	-126.9754	147.1917	283.5745	-123.7551	134.6727	291.5088	-100.3515	182.9571	292.1722	-137.8755	159.9038	269.0079	-130.6573	145.4008	275.4089	-109.016	193.9603	273.4399	-141.2652	170.3588	254.5117	-131.1031	153.5701	255.5961	-116.5543	201.2447	257.7152	-140.94	181.3858	246.4517	-131.7496	166.4531	305.2301	-109.5418	95.54176	269.5162	-105.6253	135.8462	260.1667	-106.7839	148.4801	248.1479	-107.2302	157.4886	241.5311	-109.7695	166.93
749	10.38888889	207.3684	-45.69866	180.1375	243.1449	-63.20865	149.1914	263.9723	-76.38265	126.7078	285.9123	-98.35501	111.2781	294.283	-96.58571	166.065	301.598	-131.1935	149.8428	280.299	-128.8781	137.0826	285.4019	-105.0588	185.4273	285.9189	-142.4368	162.1343	263.209	-134.3436	147.3768	268.9463	-113.5439	196.037	267.0871	-145.5554	172.1053	248.5583	-134.5298	155.4163	248.8686	-120.7965	202.8722	251.2985	-145.2684	183.1552	240.4916	-135.6505	168.1544	300.1226	-114.9708	98.6221	265.4325	-111.4109	138.3436	255.373	-110.194	150.9797	242.9319	-110.6206	160.1562	236.1163	-113.5751	169.2028
750	10.40277778	198.4413	-52.87147	183.7337	234.1417	-71.98626	153.5128	254.8919	-86.28613	131.6542	276.2881	-109.1266	116.7299	283.4738	-107.2707	171.4103	291.5645	-141.5095	154.7786	270.4304	-139.0862	141.767	273.7125	-115.5638	190.4235	273.4898	-152.806	166.9095	251.6003	-143.4546	151.6641	256.6265	-123.4515	200.4833	254.3835	-155.1671	176.1933	236.6718	-142.8709	159.5049	236.079	-129.9129	206.6871	238.323	-154.4771	187.0632	228.3518	-144.0361	172.0341	290.1324	-126.2611	104.3631	255.487	-121.7021	143.2461	245.137	-118.9597	155.6408	232.2369	-118.8825	165.0422	225.1161	-121.8132	173.8338
751	10.41666667	186.5566	-43.99119	182.9125	221.7339	-65.02543	153.2976	242.1174	-80.541	131.9284	262.7154	-104.3847	117.4573	269.1069	-102.385	172.0821	276.4575	-136.7704	155.4092	255.5066	-133.6864	142.2419	258.6528	-110.1611	190.9449	257.1973	-147.4882	167.6101	236.0411	-137.1494	151.9721	241.0493	-117.2069	200.734	237.8883	-148.8843	176.4962	220.976	-135.6629	159.6868	220.1197	-122.6732	206.6081	221.6565	-147.4631	187.2011	212.4422	-136.4387	172.1055	275.9956	-122.1549	105.3723	241.0794	-115.8714	143.7202	230.8154	-112.352	155.8928	217.7044	-111.5368	165.4315	210.3705	-114.1018	174.1878
752	10.43055556	179.4566	-33.66993	180.8404	213.9604	-56.33037	151.4488	233.8779	-73.10151	130.5951	253.8995	-97.74314	116.6615	260.51	-94.24303	170.6949	267.9352	-128.6762	154.1544	246.9513	-125.5218	141.0565	249.7888	-101.6265	189.5656	247.7046	-139.1536	166.6024	226.8558	-128.4624	150.7896	231.9731	-108.153	199.3306	228.3905	-139.8847	175.2228	211.6575	-126.1308	158.6627	210.8877	-113.0397	205.158	212.0216	-138.0566	186.0164	203.1241	-126.6172	171.0401	266.7573	-116.0756	104.9657	232.6562	-107.6111	142.6559	222.334	-103.5135	154.6228	209.013	-102.0069	164.7303	201.806	-104.2709	173.5834
753	10.44444444	172.0435	-33.59237	181.3183	206.3432	-57.93253	152.952	226.1255	-75.88002	132.9669	245.7173	-101.3922	120.0243	251.5956	-96.48421	173.7175	258.826	-131.2759	157.8546	238.1261	-127.9514	144.3533	240.3149	-103.2713	192.4857	237.7535	-141.1333	170.1282	217.4978	-130.1796	153.7349	222.1426	-109.1572	201.9978	218.3185	-141.1636	178.2935	202.1704	-127.1351	161.3868	200.8233	-113.3792	207.4834	201.7367	-138.769	188.8271	193.429	-127.232	173.5892	258.2793	-120.3534	109.0306	224.1448	-109.7601	145.4945	213.6176	-105.0604	157.135	200.0642	-102.909	167.2545	192.7333	-104.8445	176.0137
754	10.45833333	168.3239	-33.91346	181.7043	202.5243	-58.97316	153.8249	222.2339	-77.39237	134.2004	241.8566	-102.9582	121.4115	247.0669	-97.94411	175.2771	256.0342	-132.8407	160.5739	235.6429	-130.7648	146.3712	235.5106	-104.4557	193.9751	233.6922	-142.9025	172.563	213.6421	-132.6979	155.4491	217.1667	-110.0298	203.3443	214.0937	-142.6024	180.3116	197.9794	-129.0677	162.9756	195.7384	-113.9223	208.6461	197.0415	-139.9134	190.8614	188.9728	-128.8944	175.1199	254.5177	-121.8543	110.4195	220.9429	-113.1136	146.5918	209.5706	-107.5275	158.1808	195.5405	-104.7665	168.3858	188.2268	-106.4495	176.918
755	10.47222222	162.2651	-35.17851	183.4976	196.1473	-61.83609	156.7245	215.6117	-81.22852	137.8054	234.7072	-107.5043	125.6742	238.7123	-102.1328	179.6702	247.7079	-137.4517	166.0314	227.8307	-135.5174	151.099	226.4852	-107.9915	198.1565	224.2625	-146.8387	177.5192	204.9549	-136.5844	159.6004	207.7318	-112.7751	207.1438	204.4833	-145.7292	184.6852	189.1278	-132.1342	166.7188	186.055	-115.8137	211.9726	187.082	-142.2816	194.8869	179.7633	-131.4428	178.6613	247.0519	-126.8298	115.0762	213.3329	-117.7113	150.4217	201.4984	-111.2623	161.706	187.1504	-107.6867	171.6364	179.6397	-108.9499	179.9332
